<svg width="146" height="79" viewBox="0 0 146 79" fill="none" xmlns="http://www.w3.org/2000/svg">
<g clip-path="url(#clip0_406_119)">
<path d="M51.7626 6.23769C51.0792 5.55408 51.0791 4.44622 51.7623 3.76252C51.7624 3.76246 51.7625 3.7624 51.7625 3.76233C51.7626 3.76231 51.7626 3.76229 51.7626 3.76226C52.4462 3.07943 53.5542 3.07945 54.2379 3.76256L69.2352 18.7646L69.2353 18.7647C69.919 19.4483 69.919 20.5516 69.2353 21.2353L69.2353 21.2353L54.2376 36.2353C53.5539 36.9189 52.446 36.9189 51.7626 36.2353C51.0791 35.5516 51.0791 34.4483 51.7626 33.7646L51.7626 33.7646L64.9914 20.5302L65.5214 19.9999L64.9913 19.4697L51.7626 6.23771C51.7626 6.2377 51.7626 6.23769 51.7626 6.23769ZM93 33.25C93.9686 33.25 94.75 34.0314 94.75 35C94.75 35.9686 93.9686 36.75 93 36.75H70.5C69.5314 36.75 68.75 35.9686 68.75 35C68.75 34.0314 69.5314 33.25 70.5 33.25H93Z" stroke="#3294F8" stroke-width="1.5"/>
</g>
<path d="M13.9023 69.0117V76.5C12.793 77.5156 10.5469 78.0234 7.16406 78.0234C6.5 78.0234 5.91406 77.9961 5.40625 77.9414C4.90625 77.8867 4.44531 77.8164 4.02344 77.7305C3.60938 77.6445 3.25391 77.5 2.95703 77.2969C2.66016 77.0859 2.39844 76.875 2.17188 76.6641C1.94531 76.4531 1.76172 76.1484 1.62109 75.75C1.48047 75.3438 1.36328 74.9531 1.26953 74.5781C1.18359 74.2031 1.11719 73.6992 1.07031 73.0664C1.03125 72.4336 1.00391 71.8281 0.988281 71.25C0.972656 70.6719 0.964844 69.9297 0.964844 69.0234C0.964844 68.25 0.96875 67.5898 0.976562 67.043C0.992188 66.4961 1.01953 65.9375 1.05859 65.3672C1.10547 64.7969 1.16406 64.3242 1.23438 63.9492C1.3125 63.5664 1.41406 63.1836 1.53906 62.8008C1.67188 62.4102 1.82422 62.0977 1.99609 61.8633C2.16797 61.6211 2.38281 61.3828 2.64062 61.1484C2.89844 60.9141 3.18359 60.7344 3.49609 60.6094C3.81641 60.4844 4.1875 60.3711 4.60938 60.2695C5.03125 60.168 5.49219 60.1016 5.99219 60.0703C6.49219 60.0312 7.05859 60.0117 7.69141 60.0117C7.73047 60.0117 7.78906 60.0117 7.86719 60.0117C8.41406 60.0117 8.82812 60.0156 9.10938 60.0234C9.39062 60.0312 9.76953 60.0625 10.2461 60.1172C10.7305 60.1641 11.1016 60.2422 11.3594 60.3516C11.6172 60.4531 11.9141 60.6094 12.25 60.8203C12.5859 61.0234 12.8359 61.2773 13 61.582C13.1641 61.8789 13.3086 62.2578 13.4336 62.7188C13.5586 63.1797 13.6211 63.7109 13.6211 64.3125C13.6211 64.4531 13.6133 64.6484 13.5977 64.8984L11.5 65.2969L11.3711 62.9883C11.3555 62.4883 11.0703 62.168 10.5156 62.0273C9.96094 61.8789 8.91016 61.8047 7.36328 61.8047C6.30859 61.8047 5.51172 61.8711 4.97266 62.0039C4.43359 62.1289 4.05859 62.3242 3.84766 62.5898C3.63672 62.8555 3.50781 63.25 3.46094 63.7734C3.39062 65.375 3.35547 67.0156 3.35547 68.6953C3.35547 70.3828 3.39062 72.0234 3.46094 73.6172C3.5 74.4609 3.56641 75.0078 3.66016 75.2578C3.80859 75.6406 4.14844 75.8984 4.67969 76.0312C5.17969 76.1562 6.05078 76.2188 7.29297 76.2188C9.96484 76.2188 11.4453 76.0391 11.7344 75.6797C11.7266 74.875 11.7227 73.2422 11.7227 70.7812H8.76953L8.57031 69.0117H13.9023Z" fill="#3294F8"/>
<path d="M19.8438 77.7422H17.4648V60.2812H19.8438V77.7422Z" fill="#3294F8"/>
<path d="M33.3086 62.0859H28.75V77.7422H26.3711V62.0859H21.9062V60.2812H33.3086V62.0859Z" fill="#3294F8"/>
<path d="M47.8633 77.7422H45.4844V69.7266H37.6797V77.7422H35.3008V60.2812H37.6797V67.875H45.4844V60.2812H47.8633V77.7422Z" fill="#3294F8"/>
<path d="M64.7734 60.2812V71.2148C64.7734 72.1523 64.7305 72.957 64.6445 73.6289C64.5664 74.3008 64.4219 74.8984 64.2109 75.4219C64 75.9375 63.7344 76.3594 63.4141 76.6875C63.1016 77.0078 62.6875 77.2734 62.1719 77.4844C61.6641 77.6875 61.0938 77.8281 60.4609 77.9062C59.8281 77.9844 59.0625 78.0234 58.1641 78.0234C57.2969 78.0234 56.5586 77.9883 55.9492 77.918C55.3398 77.8477 54.7773 77.7188 54.2617 77.5312C53.7461 77.3359 53.3281 77.082 53.0078 76.7695C52.6953 76.4492 52.4258 76.0352 52.1992 75.5273C51.9727 75.0117 51.8125 74.4062 51.7188 73.7109C51.6328 73.0156 51.5898 72.1836 51.5898 71.2148V60.2812H53.9688V71.5195C53.9688 72.168 53.9688 72.6367 53.9688 72.9258C53.9766 73.2148 54 73.5703 54.0391 73.9922C54.0781 74.4062 54.1289 74.6914 54.1914 74.8477C54.2539 74.9961 54.3555 75.1836 54.4961 75.4102C54.6445 75.6367 54.8086 75.7812 54.9883 75.8438C55.1758 75.8984 55.4297 75.9688 55.75 76.0547C56.0703 76.1406 56.4141 76.1914 56.7812 76.207C57.1562 76.2148 57.6211 76.2188 58.1758 76.2188C58.832 76.2188 59.3789 76.1992 59.8164 76.1602C60.2617 76.1211 60.6484 76.043 60.9766 75.9258C61.3047 75.8086 61.5547 75.6758 61.7266 75.5273C61.9062 75.3711 62.0469 75.1445 62.1484 74.8477C62.2578 74.5508 62.3281 74.2422 62.3594 73.9219C62.3906 73.6016 62.4062 73.1758 62.4062 72.6445L62.3945 60.2812H64.7734Z" fill="#3294F8"/>
<path d="M80.8164 72.7148C80.8086 73.207 80.7891 73.6406 80.7578 74.0156C80.7344 74.3828 80.6914 74.7305 80.6289 75.0586C80.5664 75.3867 80.5 75.6641 80.4297 75.8906C80.3594 76.1172 80.2461 76.332 80.0898 76.5352C79.9414 76.7305 79.7969 76.8906 79.6562 77.0156C79.5156 77.1328 79.3125 77.2422 79.0469 77.3438C78.7891 77.4375 78.5391 77.5078 78.2969 77.5547C78.0547 77.6016 77.7305 77.6406 77.3242 77.6719C76.9258 77.7031 76.5391 77.7227 76.1641 77.7305C75.7969 77.7383 75.332 77.7422 74.7695 77.7422H68.5117V60.2812H75.1445C76.0273 60.2812 76.7578 60.3281 77.3359 60.4219C77.9219 60.5078 78.4375 60.668 78.8828 60.9023C79.3359 61.1367 79.6641 61.4688 79.8672 61.8984C80.0703 62.3281 80.1758 62.875 80.1836 63.5391L80.1953 64.8047C80.1953 65.3359 80.1758 65.7695 80.1367 66.1055C80.0977 66.4414 80.0273 66.7461 79.9258 67.0195C79.832 67.293 79.6875 67.5078 79.4922 67.6641C79.2969 67.8203 79.0586 67.9531 78.7773 68.0625C78.5039 68.1641 78.1484 68.2539 77.7109 68.332C78.2422 68.3867 78.6992 68.5039 79.082 68.6836C79.4648 68.8633 79.7656 69.0781 79.9844 69.3281C80.2109 69.5781 80.3867 69.8945 80.5117 70.2773C80.6367 70.6602 80.7188 71.0352 80.7578 71.4023C80.7969 71.7695 80.8164 72.207 80.8164 72.7148ZM77.875 64.3008C77.875 64.2852 77.875 64.2617 77.875 64.2305C77.875 63.9023 77.875 63.6719 77.875 63.5391C77.875 63.3984 77.8516 63.2305 77.8047 63.0352C77.7656 62.832 77.7227 62.6992 77.6758 62.6367C77.6367 62.5742 77.5391 62.4922 77.3828 62.3906C77.2344 62.2812 77.0859 62.2188 76.9375 62.2031C76.7891 62.1797 76.5547 62.1523 76.2344 62.1211C75.9219 62.082 75.6094 62.0625 75.2969 62.0625C74.9844 62.0625 74.5586 62.0625 74.0195 62.0625H70.8672V67.6641H73.2227C74.2461 67.6641 75.0742 67.6367 75.707 67.582C76.3398 67.5195 76.8086 67.418 77.1133 67.2773C77.4258 67.1289 77.6289 66.9727 77.7227 66.8086C77.8242 66.6445 77.875 66.4258 77.875 66.1523V64.3008ZM78.4961 72.1523C78.4805 71.2227 78.4453 70.6367 78.3906 70.3945C78.2812 69.9648 78.0117 69.6719 77.582 69.5156C77.0508 69.3125 75.8633 69.207 74.0195 69.1992C73.8945 69.1992 73.7578 69.1992 73.6094 69.1992H70.8672V75.9727H75.3438C76.25 75.9727 76.9336 75.8984 77.3945 75.75C77.8555 75.5938 78.1602 75.3633 78.3086 75.0586C78.457 74.7539 78.5273 74.3047 78.5195 73.7109L78.4961 72.1523Z" fill="#3294F8"/>
<path d="M100.973 72.7148C100.965 73.207 100.945 73.6406 100.914 74.0156C100.891 74.3828 100.848 74.7305 100.785 75.0586C100.723 75.3867 100.656 75.6641 100.586 75.8906C100.516 76.1172 100.402 76.332 100.246 76.5352C100.098 76.7305 99.9531 76.8906 99.8125 77.0156C99.6719 77.1328 99.4688 77.2422 99.2031 77.3438C98.9453 77.4375 98.6953 77.5078 98.4531 77.5547C98.2109 77.6016 97.8867 77.6406 97.4805 77.6719C97.082 77.7031 96.6953 77.7227 96.3203 77.7305C95.9531 77.7383 95.4883 77.7422 94.9258 77.7422H88.668V60.2812H95.3008C96.1836 60.2812 96.9141 60.3281 97.4922 60.4219C98.0781 60.5078 98.5938 60.668 99.0391 60.9023C99.4922 61.1367 99.8203 61.4688 100.023 61.8984C100.227 62.3281 100.332 62.875 100.34 63.5391L100.352 64.8047C100.352 65.3359 100.332 65.7695 100.293 66.1055C100.254 66.4414 100.184 66.7461 100.082 67.0195C99.9883 67.293 99.8438 67.5078 99.6484 67.6641C99.4531 67.8203 99.2148 67.9531 98.9336 68.0625C98.6602 68.1641 98.3047 68.2539 97.8672 68.332C98.3984 68.3867 98.8555 68.5039 99.2383 68.6836C99.6211 68.8633 99.9219 69.0781 100.141 69.3281C100.367 69.5781 100.543 69.8945 100.668 70.2773C100.793 70.6602 100.875 71.0352 100.914 71.4023C100.953 71.7695 100.973 72.207 100.973 72.7148ZM98.0312 64.3008C98.0312 64.2852 98.0312 64.2617 98.0312 64.2305C98.0312 63.9023 98.0312 63.6719 98.0312 63.5391C98.0312 63.3984 98.0078 63.2305 97.9609 63.0352C97.9219 62.832 97.8789 62.6992 97.832 62.6367C97.793 62.5742 97.6953 62.4922 97.5391 62.3906C97.3906 62.2812 97.2422 62.2188 97.0938 62.2031C96.9453 62.1797 96.7109 62.1523 96.3906 62.1211C96.0781 62.082 95.7656 62.0625 95.4531 62.0625C95.1406 62.0625 94.7148 62.0625 94.1758 62.0625H91.0234V67.6641H93.3789C94.4023 67.6641 95.2305 67.6367 95.8633 67.582C96.4961 67.5195 96.9648 67.418 97.2695 67.2773C97.582 67.1289 97.7852 66.9727 97.8789 66.8086C97.9805 66.6445 98.0312 66.4258 98.0312 66.1523V64.3008ZM98.6523 72.1523C98.6367 71.2227 98.6016 70.6367 98.5469 70.3945C98.4375 69.9648 98.168 69.6719 97.7383 69.5156C97.207 69.3125 96.0195 69.207 94.1758 69.1992C94.0508 69.1992 93.9141 69.1992 93.7656 69.1992H91.0234V75.9727H95.5C96.4062 75.9727 97.0898 75.8984 97.5508 75.75C98.0117 75.5938 98.3164 75.3633 98.4648 75.0586C98.6133 74.7539 98.6836 74.3047 98.6758 73.7109L98.6523 72.1523Z" fill="#3294F8"/>
<path d="M113.008 77.7422H104.137V60.2812H106.516V75.9492H113.242L113.008 77.7422Z" fill="#3294F8"/>
<path d="M122.23 78.0234C121.551 78.0234 120.945 78.0078 120.414 77.9766C119.891 77.9453 119.406 77.8672 118.961 77.7422C118.516 77.625 118.133 77.5156 117.812 77.4141C117.5 77.3125 117.215 77.1211 116.957 76.8398C116.707 76.5508 116.5 76.3047 116.336 76.1016C116.172 75.8906 116.031 75.5469 115.914 75.0703C115.797 74.5859 115.711 74.1758 115.656 73.8398C115.602 73.4961 115.555 72.9688 115.516 72.2578C115.484 71.5469 115.465 70.9375 115.457 70.4297C115.457 69.9219 115.457 69.1875 115.457 68.2266C115.457 67.0703 115.488 66.1094 115.551 65.3438C115.613 64.5781 115.734 63.8672 115.914 63.2109C116.102 62.5547 116.344 62.0391 116.641 61.6641C116.945 61.2891 117.355 60.9688 117.871 60.7031C118.395 60.4297 119 60.2461 119.688 60.1523C120.383 60.0508 121.23 60 122.23 60C123.176 60 123.984 60.0469 124.656 60.1406C125.328 60.2344 125.922 60.4023 126.438 60.6445C126.961 60.8789 127.379 61.1758 127.691 61.5352C128.012 61.8867 128.273 62.3516 128.477 62.9297C128.68 63.5078 128.816 64.1562 128.887 64.875C128.965 65.5859 129.004 66.4531 129.004 67.4766C129.004 70.3672 128.961 72.2695 128.875 73.1836C128.727 74.7461 128.367 75.8633 127.797 76.5352C127.195 77.2539 126.172 77.707 124.727 77.8945C124.039 77.9805 123.207 78.0234 122.23 78.0234ZM123.906 61.8516C123.461 61.8203 122.902 61.8047 122.23 61.8047C121.559 61.8047 121 61.8203 120.555 61.8516C120.109 61.8828 119.719 61.9492 119.383 62.0508C119.055 62.1523 118.801 62.2656 118.621 62.3906C118.441 62.5156 118.293 62.7109 118.176 62.9766C118.066 63.2344 117.992 63.5 117.953 63.7734C117.922 64.0469 117.898 64.418 117.883 64.8867C117.859 66.332 117.848 67.7852 117.848 69.2461C117.848 71.4492 117.906 72.957 118.023 73.7695C118.211 74.9883 118.566 75.6914 119.09 75.8789C119.48 76.1055 120.527 76.2188 122.23 76.2188C123.934 76.2188 124.98 76.1055 125.371 75.8789C125.52 75.8242 125.652 75.7344 125.77 75.6094C125.895 75.4844 125.996 75.3164 126.074 75.1055C126.16 74.8945 126.234 74.6836 126.297 74.4727C126.359 74.2539 126.41 73.9766 126.449 73.6406C126.488 73.3047 126.52 73.0039 126.543 72.7383C126.566 72.4648 126.582 72.1211 126.59 71.707C126.598 71.2852 126.602 70.9375 126.602 70.6641C126.609 70.3906 126.613 70.0273 126.613 69.5742C126.613 67.9961 126.602 66.4336 126.578 64.8867C126.562 64.418 126.535 64.0469 126.496 63.7734C126.465 63.5 126.391 63.2344 126.273 62.9766C126.164 62.7109 126.02 62.5156 125.84 62.3906C125.66 62.2656 125.402 62.1523 125.066 62.0508C124.738 61.9492 124.352 61.8828 123.906 61.8516Z" fill="#3294F8"/>
<path d="M145.035 69.0117V76.5C143.926 77.5156 141.68 78.0234 138.297 78.0234C137.633 78.0234 137.047 77.9961 136.539 77.9414C136.039 77.8867 135.578 77.8164 135.156 77.7305C134.742 77.6445 134.387 77.5 134.09 77.2969C133.793 77.0859 133.531 76.875 133.305 76.6641C133.078 76.4531 132.895 76.1484 132.754 75.75C132.613 75.3438 132.496 74.9531 132.402 74.5781C132.316 74.2031 132.25 73.6992 132.203 73.0664C132.164 72.4336 132.137 71.8281 132.121 71.25C132.105 70.6719 132.098 69.9297 132.098 69.0234C132.098 68.25 132.102 67.5898 132.109 67.043C132.125 66.4961 132.152 65.9375 132.191 65.3672C132.238 64.7969 132.297 64.3242 132.367 63.9492C132.445 63.5664 132.547 63.1836 132.672 62.8008C132.805 62.4102 132.957 62.0977 133.129 61.8633C133.301 61.6211 133.516 61.3828 133.773 61.1484C134.031 60.9141 134.316 60.7344 134.629 60.6094C134.949 60.4844 135.32 60.3711 135.742 60.2695C136.164 60.168 136.625 60.1016 137.125 60.0703C137.625 60.0312 138.191 60.0117 138.824 60.0117C138.863 60.0117 138.922 60.0117 139 60.0117C139.547 60.0117 139.961 60.0156 140.242 60.0234C140.523 60.0312 140.902 60.0625 141.379 60.1172C141.863 60.1641 142.234 60.2422 142.492 60.3516C142.75 60.4531 143.047 60.6094 143.383 60.8203C143.719 61.0234 143.969 61.2773 144.133 61.582C144.297 61.8789 144.441 62.2578 144.566 62.7188C144.691 63.1797 144.754 63.7109 144.754 64.3125C144.754 64.4531 144.746 64.6484 144.73 64.8984L142.633 65.2969L142.504 62.9883C142.488 62.4883 142.203 62.168 141.648 62.0273C141.094 61.8789 140.043 61.8047 138.496 61.8047C137.441 61.8047 136.645 61.8711 136.105 62.0039C135.566 62.1289 135.191 62.3242 134.98 62.5898C134.77 62.8555 134.641 63.25 134.594 63.7734C134.523 65.375 134.488 67.0156 134.488 68.6953C134.488 70.3828 134.523 72.0234 134.594 73.6172C134.633 74.4609 134.699 75.0078 134.793 75.2578C134.941 75.6406 135.281 75.8984 135.812 76.0312C136.312 76.1562 137.184 76.2188 138.426 76.2188C141.098 76.2188 142.578 76.0391 142.867 75.6797C142.859 74.875 142.855 73.2422 142.855 70.7812H139.902L139.703 69.0117H145.035Z" fill="#3294F8"/>
<defs>
<clipPath id="clip0_406_119">
<rect width="45" height="40" fill="white" transform="translate(50.5)"/>
</clipPath>
</defs>
</svg>
